# xmcd
#
# Track frame offsets:
#	150
#	8471
#	27973
#	58924
#	89566
#	118066
#	145930
#	179162
#	204280
#	233582
#	264328
#	294776
#	313290
#
# Disc length: 4481 seconds
#
# Revision: 0
# Processed by: cddbd v1.5.2PL0 Copyright (c) Steve Scherf et al.
# Submitted via: EasyCDDAExtractor 16.1.0.1
#
DISCID=b5117f0d
DTITLE=Redco - Zenith
DYEAR=2005
DGENRE=Drum&Bass
TTITLE0=Intro
TTITLE1=Agressors
TTITLE2=Limited Object
TTITLE3=Drummer
TTITLE4=All Night
TTITLE5=The Line
TTITLE6=Lost Sensivity
TTITLE7=Victory
TTITLE8=Morena Result
TTITLE9=Bandits
TTITLE10=Acid Rain
TTITLE11=Zoryane Misto
TTITLE12=The Same Star (Redco Remix) - Ruslana
EXTD=
EXTT0=
EXTT1=
EXTT2=
EXTT3=
EXTT4=
EXTT5=
EXTT6=
EXTT7=
EXTT8=
EXTT9=
EXTT10=
EXTT11=
EXTT12=
PLAYORDER=
